<svg width="50" height="50" viewBox="0 0 50 50" fill="none" xmlns="http://www.w3.org/2000/svg">
<path fill-rule="evenodd" clip-rule="evenodd" d="M24.4795 33.6548C23.617 33.6548 22.917 32.9548 22.917 32.0923V16.8277C22.917 15.9652 23.617 15.2652 24.4795 15.2652C25.342 15.2652 26.042 15.9652 26.042 16.8277V32.0923C26.042 32.9548 25.342 33.6548 24.4795 33.6548" fill="white"/>
<path fill-rule="evenodd" clip-rule="evenodd" d="M32.1179 26.0212H16.8408C15.9762 26.0212 15.2783 25.3212 15.2783 24.4587C15.2783 23.5962 15.9762 22.8962 16.8408 22.8962H32.1179C32.9804 22.8962 33.6804 23.5962 33.6804 24.4587C33.6804 25.3212 32.9804 26.0212 32.1179 26.0212" fill="white"/>
<path fill-rule="evenodd" clip-rule="evenodd" d="M14.7168 5.20833C8.94183 5.20833 5.2085 9.16041 5.2085 15.2812V33.6771C5.2085 39.7979 8.94183 43.75 14.7168 43.75H34.2418C40.0189 43.75 43.7502 39.7979 43.7502 33.6771V15.2812C43.7502 9.16041 40.0189 5.20833 34.2418 5.20833H14.7168ZM34.2418 46.875H14.7168C7.16058 46.875 2.0835 41.5708 2.0835 33.6771V15.2812C2.0835 7.3875 7.16058 2.08333 14.7168 2.08333H34.2418C41.7981 2.08333 46.8752 7.3875 46.8752 15.2812V33.6771C46.8752 41.5708 41.7981 46.875 34.2418 46.875V46.875Z" fill="white"/>
</svg>
