<svg width="50" height="50" viewBox="0 0 50 50" fill="none" xmlns="http://www.w3.org/2000/svg">
<path fill-rule="evenodd" clip-rule="evenodd" d="M34.5357 46.6015H16.1524C8.98366 46.6015 4.16699 41.5702 4.16699 34.0827V16.7619C4.16699 9.27438 8.98366 4.24313 16.1524 4.24313H23.942C24.8045 4.24313 25.5045 4.94313 25.5045 5.80563C25.5045 6.66813 24.8045 7.36813 23.942 7.36813H16.1524C10.7691 7.36813 7.29199 11.0556 7.29199 16.7619V34.0827C7.29199 39.789 10.7691 43.4765 16.1524 43.4765H34.5357C39.9191 43.4765 43.3982 39.789 43.3982 34.0827V25.691C43.3982 24.8285 44.0982 24.1285 44.9607 24.1285C45.8232 24.1285 46.5232 24.8285 46.5232 25.691V34.0827C46.5232 41.5702 41.7045 46.6015 34.5357 46.6015" fill="white"/>
<path fill-rule="evenodd" clip-rule="evenodd" d="M18.4746 32.1423H24.6767C25.4684 32.1423 26.21 31.836 26.7705 31.2756L42.4142 15.6319C43.0559 14.9902 43.41 14.136 43.41 13.2277C43.41 12.3173 43.0559 11.461 42.4142 10.8194L39.8788 8.28396C38.5517 6.96104 36.3934 6.96104 35.0642 8.28396L19.4955 23.8527C18.9559 24.3923 18.6496 25.109 18.6309 25.8694L18.4746 32.1423ZM24.6767 35.2673H16.8725C16.4517 35.2673 16.0475 35.0965 15.7538 34.7944C15.46 34.4944 15.2996 34.0881 15.31 33.6652L15.5059 25.7923C15.5455 24.2256 16.1767 22.7527 17.285 21.6423H17.2871L32.8559 6.07354C35.4017 3.53187 39.5413 3.53187 42.0871 6.07354L44.6225 8.60896C45.858 9.84229 46.5371 11.4819 46.535 13.2277C46.535 14.9735 45.8559 16.611 44.6225 17.8423L28.9788 33.486C27.8309 34.634 26.3017 35.2673 24.6767 35.2673V35.2673Z" fill="white"/>
<path fill-rule="evenodd" clip-rule="evenodd" d="M41.1062 20.6596C40.7062 20.6596 40.3062 20.5075 40.0021 20.2013L30.4896 10.6888C29.8791 10.0783 29.8791 9.08875 30.4896 8.47833C31.1 7.86792 32.0875 7.86792 32.6979 8.47833L42.2104 17.9929C42.8208 18.6033 42.8208 19.5908 42.2104 20.2013C41.9062 20.5075 41.5062 20.6596 41.1062 20.6596" fill="white"/>
</svg>
