<svg id="Layer_1" data-name="Layer 1" xmlns="http://www.w3.org/2000/svg" xmlns:xlink="http://www.w3.org/1999/xlink" viewBox="0 0 80 50"><defs><style>.cls-1{fill:url(#linear-gradient);}</style><linearGradient id="linear-gradient" x1="23.97" y1="-0.1" x2="53.72" y2="29.65" gradientUnits="userSpaceOnUse"><stop offset="0"/><stop offset="1" stop-opacity="0.3"/></linearGradient></defs><title>Notus_logo_vertical_black</title><path d="M8,37.5A.43.43,0,0,0,7.5,37H5.14a.42.42,0,0,0-.46.46V49a.69.69,0,0,1-.73.73H2.11A.69.69,0,0,1,1.38,49V37.76A1.32,1.32,0,0,1,2,36.66l3.71-2.32a1.2,1.2,0,0,1,.61-.18,1.15,1.15,0,0,1,.61.18l3.71,2.32a1.32,1.32,0,0,1,.62,1.1v8.91a.43.43,0,0,0,.46.46h2.37a.43.43,0,0,0,.46-.46V35.13a.68.68,0,0,1,.72-.73h1.84a.69.69,0,0,1,.73.73V46.4a1.32,1.32,0,0,1-.62,1.1l-3.71,2.32a1.15,1.15,0,0,1-.61.18,1.2,1.2,0,0,1-.61-.18L8.58,47.5A1.31,1.31,0,0,1,8,46.4Zm15.3.7A1.84,1.84,0,0,1,23.8,37L26,34.89a2,2,0,0,1,1.26-.49h2.5a2,2,0,0,1,1.25.49L33.27,37a1.84,1.84,0,0,1,.53,1.23V46a1.74,1.74,0,0,1-.53,1.21L31,49.25a1.89,1.89,0,0,1-1.25.51h-2.5A1.9,1.9,0,0,1,26,49.25L23.8,47.17A1.74,1.74,0,0,1,23.27,46Zm6.78,8.49a.43.43,0,0,0,.46-.46V37.94a.43.43,0,0,0-.46-.46H27a.43.43,0,0,0-.46.46v8.29a.43.43,0,0,0,.46.46ZM44.72,49a.69.69,0,0,1-.73.73H42.15a.68.68,0,0,1-.72-.73V37.94a.43.43,0,0,0-.46-.46H39.08a.68.68,0,0,1-.72-.73V35.13a.68.68,0,0,1,.72-.73h1.41a2.07,2.07,0,0,1,1.27.49L44.17,37a1.69,1.69,0,0,1,.55,1.21Zm0-13.9a.68.68,0,0,1,.72-.73h1.63a.69.69,0,0,1,.72.73v1.62a.69.69,0,0,1-.72.73H45.44a.68.68,0,0,1-.72-.73Zm8.07,0a.68.68,0,0,1,.72-.73h1.84a.69.69,0,0,1,.73.73V46.67a.43.43,0,0,0,.46.46h2.37a.43.43,0,0,0,.46-.46V35.13a.68.68,0,0,1,.72-.73h1.84a.69.69,0,0,1,.73.73V46a1.42,1.42,0,0,1-.6,1.14l-3.75,2.68a.94.94,0,0,1-.59.18,1,1,0,0,1-.59-.18L53.38,47.1A1.44,1.44,0,0,1,52.79,46Zm15,4.28a1.11,1.11,0,0,1,0-1.21L70.09,35a1.45,1.45,0,0,1,1.14-.6h6a.68.68,0,0,1,.72.73v1.62a.68.68,0,0,1-.72.73H71.18a.43.43,0,0,0-.46.46v2.15a.43.43,0,0,0,.46.46H75a1.37,1.37,0,0,1,1.12.61l2.28,3.6a1.07,1.07,0,0,1,0,1.2l-2.23,3.21a1.47,1.47,0,0,1-1.15.59H69a.69.69,0,0,1-.72-.73V47.41a.68.68,0,0,1,.72-.72h6.06a.43.43,0,0,0,.46-.46V44.08a.43.43,0,0,0-.46-.46H71.23A1.35,1.35,0,0,1,70.11,43Z"/><path class="cls-1" d="M55.63,27.24a1.12,1.12,0,0,1-.74-.26L41.16,16.07l0,10A1.2,1.2,0,0,1,40,27.21l-15.58,0h0a1.2,1.2,0,0,1-.84-.34,1.23,1.23,0,0,1-.35-.85V1.19A1.19,1.19,0,0,1,23.85.12a1.18,1.18,0,0,1,1.26.14L38.78,11.13V9a9,9,0,0,1,18,0l0,17.07a1.17,1.17,0,0,1-.67,1.07A1.2,1.2,0,0,1,55.63,27.24ZM25.56,3.66v21.2l13.2,0,0-10.65ZM41.16,13,54.43,23.58,54.4,9a6.63,6.63,0,0,0-6.6-6.6h0A6.63,6.63,0,0,0,41.17,9Z"/></svg>