<svg width="50" height="50" viewBox="0 0 50 50" fill="none" xmlns="http://www.w3.org/2000/svg">
<mask id="mask0_532_27" style="mask-type:alpha" maskUnits="userSpaceOnUse" x="4" y="4" width="42" height="42">
<path fill-rule="evenodd" clip-rule="evenodd" d="M4.1665 4.16667H45.833V45.8333H4.1665V4.16667Z" fill="white"/>
</mask>
<g mask="url(#mask0_532_27)">
<path fill-rule="evenodd" clip-rule="evenodd" d="M15.9665 7.29167C10.6978 7.29167 7.2915 10.9021 7.2915 16.4917V33.5083C7.2915 39.0979 10.6978 42.7083 15.9665 42.7083H34.0248C39.2998 42.7083 42.7082 39.0979 42.7082 33.5083V16.4917C42.7082 10.9021 39.2998 7.29167 34.029 7.29167H15.9665ZM34.0248 45.8333H15.9665C8.90817 45.8333 4.1665 40.8792 4.1665 33.5083V16.4917C4.1665 9.12084 8.90817 4.16667 15.9665 4.16667H34.029C41.0894 4.16667 45.8332 9.12084 45.8332 16.4917V33.5083C45.8332 40.8792 41.0894 45.8333 34.0248 45.8333V45.8333Z" fill="white"/>
</g>
<path fill-rule="evenodd" clip-rule="evenodd" d="M18.4138 22.705C17.1429 22.705 16.1138 23.7342 16.1138 25.0008C16.1138 26.2675 17.1429 27.2967 18.4096 27.2967C19.6742 27.2967 20.7054 26.2675 20.7054 25.0008C20.7054 23.7363 19.6763 22.7071 18.4138 22.705M18.4096 30.4217C15.42 30.4217 12.9888 27.9883 12.9888 25.0008C12.9888 22.0113 15.42 19.58 18.4096 19.58C21.4034 19.5821 23.8304 22.0133 23.8304 25.0008C23.8304 27.9883 21.3992 30.4217 18.4096 30.4217" fill="white"/>
<path fill-rule="evenodd" clip-rule="evenodd" d="M35.4369 30.4219C34.5744 30.4219 33.8744 29.7219 33.8744 28.8594V26.5615H22.2744C21.4119 26.5615 20.7119 25.8635 20.7119 24.999C20.7119 24.1365 21.4119 23.4365 22.2744 23.4365H35.4369C36.2994 23.4365 36.9994 24.1365 36.9994 24.999V28.8594C36.9994 29.7219 36.2994 30.4219 35.4369 30.4219" fill="white"/>
<path fill-rule="evenodd" clip-rule="evenodd" d="M29.5444 30.4219C28.6819 30.4219 27.9819 29.7219 27.9819 28.8594V24.999C27.9819 24.1365 28.6819 23.4365 29.5444 23.4365C30.4069 23.4365 31.1069 24.1365 31.1069 24.999V28.8594C31.1069 29.7219 30.4069 30.4219 29.5444 30.4219" fill="white"/>
</svg>
