<svg width="322" height="40" viewBox="0 0 322 40" fill="none" xmlns="http://www.w3.org/2000/svg">
<g clip-path="url(#clip0_526_339)">
<path d="M16.6021 8.43011C16.6021 7.74194 16.172 7.22581 15.3978 7.22581H9.37634C8.68817 7.22581 8.17204 7.65591 8.17204 8.43011V37.5914C8.17204 38.7097 7.48387 39.3978 6.36559 39.3978H1.80645C0.688172 39.3978 0 38.7097 0 37.5914V9.11828C0 8 0.60215 6.88172 1.54839 6.27957L10.9247 0.430108C11.4409 0.172043 11.871 0 12.4731 0C12.9892 0 13.5914 0.172043 14.0215 0.430108L23.3978 6.27957C24.3441 6.88172 24.9462 8 24.9462 9.11828V31.5699C24.9462 32.2581 25.3763 32.7742 26.1505 32.7742H32.172C32.8602 32.7742 33.3763 32.3441 33.3763 31.5699V2.4086C33.3763 1.29032 34.0645 0.602151 35.1828 0.602151H39.828C40.9462 0.602151 41.6344 1.29032 41.6344 2.4086V30.8817C41.6344 32 41.0323 33.1183 40.086 33.6344L30.6237 39.5699C30.1935 39.828 29.5914 40 29.0753 40C28.5591 40 28.043 39.828 27.5269 39.5699L18.1505 33.7204C17.2043 33.2043 16.6021 32.086 16.6021 30.9677V8.43011ZM55.3118 10.2366C55.3118 9.11828 55.828 7.91398 56.6022 7.13979L62.2796 1.89247C63.0538 1.2043 64.3441 0.688172 65.4624 0.688172H71.7419C72.8602 0.688172 74.1505 1.2043 74.9247 1.89247L80.6021 7.13979C81.3763 7.91398 81.8925 9.11828 81.8925 10.2366V29.8495C81.8925 30.9677 81.3763 32.172 80.6021 32.8602L74.9247 38.1075C74.1505 38.8817 72.8602 39.3978 71.7419 39.3978H65.4624C64.3441 39.3978 63.0538 38.8817 62.2796 38.1075L56.6022 32.8602C55.828 32.172 55.3118 30.8817 55.3118 29.8495V10.2366ZM72.4301 31.6559C73.1183 31.6559 73.6344 31.2258 73.6344 30.4516V9.54839C73.6344 8.86022 73.2043 8.34409 72.4301 8.34409H64.7742C64.086 8.34409 63.5699 8.77419 63.5699 9.54839V30.4516C63.5699 31.1398 64 31.6559 64.7742 31.6559H72.4301ZM109.419 37.5914C109.419 38.7097 108.731 39.3978 107.613 39.3978H102.968C101.849 39.3978 101.161 38.7097 101.161 37.5914V9.54839C101.161 8.86022 100.731 8.34409 99.957 8.34409H95.2258C94.1075 8.34409 93.4193 7.65591 93.4193 6.53763V2.4086C93.4193 1.29032 94.1075 0.602151 95.2258 0.602151H98.7527C99.871 0.602151 101.161 1.11828 101.935 1.80645L108.043 7.13979C108.903 7.82796 109.419 9.11828 109.419 10.1505V37.5914V37.5914ZM109.419 2.4086C109.419 1.29032 110.108 0.602151 111.226 0.602151H115.355C116.473 0.602151 117.161 1.29032 117.161 2.4086V6.53763C117.161 7.65591 116.473 8.34409 115.355 8.34409H111.226C110.108 8.34409 109.419 7.65591 109.419 6.53763V2.4086V2.4086ZM129.806 2.4086C129.806 1.29032 130.495 0.602151 131.613 0.602151H136.258C137.376 0.602151 138.065 1.29032 138.065 2.4086V31.5699C138.065 32.2581 138.495 32.7742 139.269 32.7742H145.29C145.978 32.7742 146.495 32.3441 146.495 31.5699V2.4086C146.495 1.29032 147.183 0.602151 148.301 0.602151H152.946C154.065 0.602151 154.753 1.29032 154.753 2.4086V29.7634C154.753 30.8817 154.151 32 153.29 32.6022L143.828 39.3978C143.398 39.7419 142.882 39.828 142.366 39.828C141.849 39.828 141.333 39.7419 140.903 39.3978L131.441 32.6022C130.581 32 129.978 30.7957 129.978 29.7634V2.4086H129.806ZM167.828 13.2473C167.226 12.3011 167.312 11.0968 167.914 10.2366L173.591 2.15054C174.194 1.29032 175.398 0.688172 176.43 0.688172H191.57C192.688 0.688172 193.376 1.37634 193.376 2.49462V6.62366C193.376 7.74194 192.688 8.43011 191.57 8.43011H176.344C175.656 8.43011 175.14 8.86022 175.14 9.63441V15.0538C175.14 15.7419 175.57 16.2581 176.344 16.2581H186.065C187.183 16.2581 188.301 16.8602 188.903 17.8065L194.667 26.9247C195.269 27.871 195.183 29.0753 194.581 29.9355L188.903 38.0215C188.301 38.8817 187.097 39.4839 186.065 39.4839H170.925C169.806 39.4839 169.118 38.7957 169.118 37.6774V33.5484C169.118 32.4301 169.806 31.7419 170.925 31.7419H186.237C186.925 31.7419 187.441 31.3118 187.441 30.5376V25.1183C187.441 24.4301 187.011 23.914 186.237 23.914H176.516C175.398 23.914 174.28 23.3118 173.677 22.3656L167.828 13.2473Z" fill="white"/>
<path d="M234.753 10.3226H232.516C232 10.3226 231.656 10.6667 231.656 11.1828V25.3764C231.656 25.7205 231.398 25.9785 231.054 25.9785H228.129C227.785 25.9785 227.527 25.7205 227.527 25.3764V14.4516C227.527 13.9355 227.269 13.3334 226.753 13.0753L222.194 10.2366C221.936 10.0645 221.678 9.97852 221.42 9.97852C221.161 9.97852 220.903 10.0645 220.645 10.2366L216.086 13.0753C215.656 13.3334 215.312 13.8495 215.312 14.4516V25.4624C215.312 25.8065 215.054 26.0645 214.71 26.0645H211.785C211.441 26.0645 211.183 25.8065 211.183 25.4624V11.1828C211.183 10.6667 210.839 10.3226 210.323 10.3226H208.172C207.656 10.3226 207.312 10.6667 207.312 11.1828V25.0323C207.312 25.5484 207.57 26.1506 208.086 26.4086L212.645 29.2473C212.903 29.4194 213.161 29.5054 213.42 29.5054C213.678 29.5054 213.936 29.4194 214.194 29.2473L218.753 26.4086C219.183 26.1506 219.527 25.6344 219.527 25.0323V13.5054H223.57V25.0323C223.57 25.5484 223.828 26.1506 224.344 26.4086L228.817 29.2473C229.075 29.4194 229.334 29.5054 229.592 29.5054C229.85 29.5054 230.108 29.4194 230.366 29.2473L234.925 26.4086C235.355 26.1506 235.699 25.6344 235.699 25.0323V11.1828C235.613 10.6667 235.269 10.3226 234.753 10.3226Z" fill="#FF3264"/>
<path d="M255.398 14.9677C255.312 14.4516 254.968 13.8495 254.538 13.5054L250.581 10.3226C250.151 9.97849 249.634 9.97849 249.204 10.3226L245.247 13.5054C244.817 13.8495 244.473 14.4516 244.387 14.9677L242.495 28.3011C242.409 28.8172 242.753 29.1613 243.269 29.1613H245.505C246.022 29.1613 246.452 28.8172 246.538 28.3011L246.968 24.8602H252.817L253.247 28.3011C253.333 28.8172 253.677 29.1613 254.28 29.1613H256.516C257.032 29.1613 257.376 28.8172 257.29 28.3011L255.398 14.9677ZM247.398 21.0753L248.344 14.1075C248.43 13.7634 248.602 13.5054 249.032 13.5054H250.581C250.925 13.5054 251.183 13.7634 251.269 14.1075L252.215 21.0753H247.398Z" fill="#FF3264"/>
<path d="M270.968 25.4624H268.646C268.301 25.4624 268.043 25.2043 268.043 24.8602V11.1828C268.043 10.6667 267.699 10.3226 267.183 10.3226H264.947C264.431 10.3226 264.086 10.6667 264.086 11.1828V24.5161C264.086 25.0322 264.344 25.6344 264.775 25.9785L267.527 28.5591C267.871 28.9032 268.56 29.1613 269.076 29.1613H271.054C271.57 29.1613 271.914 28.8172 271.914 28.3011V26.3226C271.828 25.8064 271.484 25.4624 270.968 25.4624Z" fill="#FF3264"/>
<path d="M285.506 25.4624H283.183C282.839 25.4624 282.581 25.2043 282.581 24.8602V11.1828C282.581 10.6667 282.237 10.3226 281.721 10.3226H279.484C278.968 10.3226 278.624 10.6667 278.624 11.1828V24.5161C278.624 25.0322 278.882 25.6344 279.312 25.9785L282.065 28.5591C282.409 28.9032 283.097 29.1613 283.613 29.1613H285.592C286.108 29.1613 286.452 28.8172 286.452 28.3011V26.3226C286.452 25.8064 286.108 25.4624 285.506 25.4624Z" fill="#FF3264"/>
<path d="M302.28 10.3226H298.151C297.635 10.3226 296.947 10.5806 296.602 10.9247L293.85 13.5054C293.506 13.8495 293.162 14.4516 293.162 15.0538V24.6021C293.162 25.1183 293.42 25.7204 293.85 26.0645L296.602 28.6452C296.947 28.9892 297.635 29.2473 298.151 29.2473H302.28C302.796 29.2473 303.14 28.9032 303.14 28.3871V26.4086C303.14 25.8925 302.796 25.5484 302.28 25.5484H297.807C297.463 25.5484 297.205 25.2903 297.205 24.9462V22.2796C297.205 21.9355 297.463 21.6774 297.807 21.6774H301.506C302.022 21.6774 302.366 21.3333 302.366 20.8172V18.8387C302.366 18.3226 302.022 17.9785 301.506 17.9785H297.807C297.463 17.9785 297.205 17.7204 297.205 17.3763V14.6236C297.205 14.2796 297.463 14.0215 297.807 14.0215H302.28C302.796 14.0215 303.14 13.6774 303.14 13.1613V11.1828C303.226 10.6667 302.796 10.3226 302.28 10.3226Z" fill="#FF3264"/>
<path d="M320.688 10.3226H318.71C318.194 10.3226 317.85 10.6667 317.85 11.1828V13.1613C317.85 13.6774 318.194 14.0215 318.71 14.0215H320.688C321.204 14.0215 321.549 13.6774 321.549 13.1613V11.1828C321.549 10.6667 321.204 10.3226 320.688 10.3226Z" fill="#FF3264"/>
<path d="M317.075 13.5054L314.065 10.9247C313.634 10.5806 313.032 10.3226 312.516 10.3226H310.796C310.28 10.3226 309.936 10.6667 309.936 11.1828V13.1613C309.936 13.6774 310.28 14.0215 310.796 14.0215H313.118C313.462 14.0215 313.721 14.2796 313.721 14.6236V28.3011C313.721 28.8172 314.065 29.1613 314.581 29.1613H316.817C317.333 29.1613 317.677 28.8172 317.677 28.3011V14.9677C317.764 14.4516 317.505 13.8495 317.075 13.5054Z" fill="#FF3264"/>
</g>
<defs>
<clipPath id="clip0_526_339">
<rect width="321.548" height="40" fill="white"/>
</clipPath>
</defs>
</svg>
