<svg id="Layer_1" data-name="Layer 1" xmlns="http://www.w3.org/2000/svg" xmlns:xlink="http://www.w3.org/1999/xlink" viewBox="0 0 50 50"><defs><style>.cls-1{fill:#ff3264;}.cls-2{fill:url(#linear-gradient);}</style><linearGradient id="linear-gradient" x1="11.17" y1="13.16" x2="36.84" y2="38.83" gradientUnits="userSpaceOnUse"><stop offset="0" stop-color="#fff"/><stop offset="1" stop-color="#fff" stop-opacity="0.5"/></linearGradient></defs><title>Notus_icon_red_bg</title><circle class="cls-1" cx="25" cy="25" r="25"/><path class="cls-2" d="M38.49,36.76a1,1,0,0,1-.64-.23L26,27.11l0,8.59a1,1,0,0,1-1,1l-13.45,0h0a1.06,1.06,0,0,1-.73-.3,1,1,0,0,1-.3-.73V14.27a1.06,1.06,0,0,1,.58-.93,1,1,0,0,1,1.09.13L24,22.85V21a7.77,7.77,0,0,1,15.54,0l0,14.74a1.06,1.06,0,0,1-.58.93A1.18,1.18,0,0,1,38.49,36.76ZM12.54,16.4V34.7l11.39,0V25.48ZM26,24.48l11.46,9.11,0-12.59a5.72,5.72,0,0,0-5.7-5.7h0A5.72,5.72,0,0,0,26,21Z"/></svg>