<svg id="Layer_1" data-name="Layer 1" xmlns="http://www.w3.org/2000/svg" xmlns:xlink="http://www.w3.org/1999/xlink" viewBox="0 0 80 20"><defs><style>.cls-1{fill:url(#New_Gradient_Swatch_copy_4);}</style><linearGradient id="New_Gradient_Swatch_copy_4" y1="10" x2="22.35" y2="10" gradientUnits="userSpaceOnUse"><stop offset="0" stop-color="#60f"/><stop offset="1" stop-color="#ff3264"/></linearGradient></defs><title>Notus_logo_horizontal_color</title><path style="fill:#fff;" d="M33.07,7a.29.29,0,0,0-.31-.3H31.19a.29.29,0,0,0-.31.3v7.67a.45.45,0,0,1-.48.48H29.18a.45.45,0,0,1-.48-.48V7.13a.88.88,0,0,1,.4-.73l2.47-1.54a.75.75,0,0,1,.4-.12.71.71,0,0,1,.41.12L34.85,6.4a.88.88,0,0,1,.4.73v5.92a.29.29,0,0,0,.31.3h1.57a.29.29,0,0,0,.31-.3V5.38a.45.45,0,0,1,.48-.48h1.22a.45.45,0,0,1,.48.48v7.49a.88.88,0,0,1-.4.73l-2.47,1.54a.7.7,0,0,1-.4.12.75.75,0,0,1-.41-.12L33.48,13.6a.87.87,0,0,1-.41-.73Zm10.17.47a1.26,1.26,0,0,1,.34-.82l1.49-1.38a1.32,1.32,0,0,1,.83-.32h1.66a1.3,1.3,0,0,1,.83.32L49.88,6.6a1.27,1.27,0,0,1,.35.82v5.16a1.18,1.18,0,0,1-.35.8l-1.49,1.38a1.22,1.22,0,0,1-.83.34H45.9a1.24,1.24,0,0,1-.83-.34l-1.49-1.38a1.17,1.17,0,0,1-.34-.8Zm4.5,5.64a.28.28,0,0,0,.3-.31V7.25a.28.28,0,0,0-.3-.31h-2a.29.29,0,0,0-.31.31v5.5a.29.29,0,0,0,.31.31Zm9.74,1.56a.45.45,0,0,1-.48.48H55.78a.45.45,0,0,1-.48-.48V7.25A.29.29,0,0,0,55,6.94H53.74a.45.45,0,0,1-.48-.48V5.38a.45.45,0,0,1,.48-.48h.93a1.4,1.4,0,0,1,.85.32l1.6,1.4a1.11,1.11,0,0,1,.36.8Zm0-9.24A.45.45,0,0,1,58,4.9H59a.45.45,0,0,1,.48.48V6.46a.45.45,0,0,1-.48.48H58a.45.45,0,0,1-.48-.48Zm5.36,0a.45.45,0,0,1,.48-.48h1.23a.45.45,0,0,1,.48.48v7.67a.28.28,0,0,0,.3.3h1.58a.28.28,0,0,0,.3-.3V5.38a.45.45,0,0,1,.48-.48h1.23a.45.45,0,0,1,.48.48v7.2a1,1,0,0,1-.39.76l-2.5,1.77a.59.59,0,0,1-.39.12.62.62,0,0,1-.39-.12l-2.49-1.77a1,1,0,0,1-.4-.76Zm10,2.84a.73.73,0,0,1,0-.8l1.49-2.13a1,1,0,0,1,.75-.39h4a.45.45,0,0,1,.48.48V6.46a.45.45,0,0,1-.48.48h-4a.28.28,0,0,0-.3.31V8.67a.28.28,0,0,0,.3.31h2.57a.9.9,0,0,1,.74.41l1.52,2.39a.73.73,0,0,1,0,.8l-1.48,2.13a1,1,0,0,1-.76.39h-4a.45.45,0,0,1-.49-.48V13.54a.45.45,0,0,1,.49-.48h4a.28.28,0,0,0,.3-.31V11.33a.28.28,0,0,0-.3-.31H75.09a.9.9,0,0,1-.74-.41Z"/><path class="cls-1" d="M21.56,19.05a.84.84,0,0,1-.5-.17l-9.12-7.26v6.61a.79.79,0,0,1-.79.79l-10.35,0h0A.79.79,0,0,1,0,18.26V1.74A.78.78,0,0,1,.45,1a.78.78,0,0,1,.83.09l9.09,7.23V6.91a6,6,0,0,1,12,0l0,11.34a.8.8,0,0,1-.45.71A.84.84,0,0,1,21.56,19.05ZM1.58,3.38V17.46l8.77,0V10.37ZM12,9.6l8.81,7,0-9.69a4.41,4.41,0,0,0-4.38-4.39h0A4.41,4.41,0,0,0,12,6.92Z"/></svg>